<svg version="1.1" id="Layer_1" xmlns="http://www.w3.org/2000/svg" xmlns:xlink="http://www.w3.org/1999/xlink" x="0px" y="0px"
	 width="100%" viewBox="0 0 3794 964" enable-background="new 0 0 3794 964" xml:space="preserve">
<path fill="none" opacity="1.000000" stroke="none" 
	d="
M2798.000000,965.000000 
	C1866.833374,965.000000 936.166687,964.997375 5.500010,965.092651 
	C1.751030,965.093018 0.905677,964.249084 0.906865,960.500000 
	C1.007717,642.166687 1.007717,323.833344 0.906865,5.500030 
	C0.905677,1.750891 1.751046,0.907183 5.500007,0.907464 
	C1267.166626,1.001950 2528.833252,1.001950 3790.500000,0.907464 
	C3794.249023,0.907183 3795.094482,1.750888 3795.093262,5.500029 
	C3794.992432,323.833344 3794.992188,642.166687 3795.093018,960.500000 
	C3795.094238,964.249084 3794.249268,965.094238 3790.500000,965.093079 
	C3459.833252,964.992554 3129.166748,965.000000 2798.000000,965.000000 
z"/>
<path fill="#000000" opacity="1.000000" stroke="none" 
	d="
M1036.881714,193.110428 
	C1077.851929,216.917816 1118.499023,240.552322 1159.131714,264.211884 
	C1173.632568,272.655518 1188.058960,281.228119 1202.616333,289.572784 
	C1205.186157,291.045898 1205.878906,292.756714 1205.877930,295.570312 
	C1205.830933,422.231354 1205.848633,548.892456 1205.926025,675.553467 
	C1205.927979,678.848938 1205.181030,680.922241 1202.039795,682.740906 
	C1144.559937,716.019958 1087.166016,749.447571 1029.757935,782.850708 
	C978.238831,812.827454 926.708862,842.785522 875.251099,872.867188 
	C872.408630,874.528870 870.267517,874.560974 867.534851,872.965454 
	C814.039795,841.732483 760.525391,810.532532 706.987915,779.372192 
	C671.678833,758.821289 636.320801,738.354431 600.997314,717.828186 
	C580.607788,705.980103 560.299438,693.990234 539.803528,682.329529 
	C536.937988,680.699280 536.930359,678.824341 536.930847,676.293030 
	C536.955383,553.131653 536.953674,429.970337 536.958984,306.808990 
	C536.959167,301.811646 535.540344,296.149689 537.429932,292.003967 
	C539.317932,287.861664 545.375122,286.587067 549.621826,284.105896 
	C588.478333,261.404053 627.385193,238.788345 666.287598,216.165207 
	C732.317871,177.766327 798.406677,139.467484 864.295105,100.826782 
	C869.685730,97.665413 873.289185,97.718513 878.535034,100.800896 
	C927.525024,129.586700 976.686951,158.079819 1025.797974,186.659546 
	C1029.387207,188.748245 1032.968140,190.851135 1036.881714,193.110428 
z"/>
<path fill="#010101" opacity="1.000000" stroke="none" 
	d="
M1720.312012,605.668457 
	C1702.936890,606.157776 1685.877075,606.204956 1668.819824,606.444214 
	C1666.665405,606.474426 1666.805176,605.415405 1666.837158,603.625732 
	C1668.171509,601.768799 1667.994019,600.060364 1667.994629,598.408508 
	C1668.007202,557.459412 1668.006958,516.510254 1667.993896,475.561157 
	C1667.993408,474.237946 1668.114380,472.887939 1667.226074,471.237823 
	C1666.308838,468.230682 1664.456787,467.724213 1662.043701,467.726471 
	C1619.213379,467.766541 1576.382935,467.806793 1533.552856,467.694550 
	C1529.050781,467.682739 1529.896362,470.521851 1529.894897,473.037140 
	C1529.880493,498.035522 1529.912964,523.033875 1529.922852,548.032288 
	C1529.929932,566.197754 1529.873047,584.363403 1529.971680,602.528381 
	C1529.988037,605.525940 1529.749390,606.582520 1525.996826,606.494995 
	C1508.844116,606.094788 1491.671631,606.046082 1474.520508,606.461548 
	C1470.829102,606.550964 1470.496826,605.727966 1470.519531,602.704712 
	C1470.641968,586.373718 1470.645264,570.041687 1470.644043,553.710022 
	C1470.637817,473.381195 1470.604614,393.052399 1470.648926,312.723602 
	C1470.650635,309.611664 1469.007202,305.523987 1471.179199,303.659821 
	C1472.845947,302.229248 1476.834961,303.594452 1479.789185,303.558777 
	C1495.779053,303.365692 1511.777344,304.093842 1527.757568,303.161774 
	C1529.588013,303.055054 1530.119995,303.625458 1530.006226,305.320007 
	C1529.906006,306.814087 1529.946533,308.318451 1529.946533,309.818268 
	C1529.945679,343.816254 1529.929688,377.814240 1529.965454,411.812164 
	C1529.972046,418.144928 1528.652100,418.852539 1536.907837,418.809845 
	C1577.904053,418.597870 1618.901855,418.738098 1659.899170,418.748383 
	C1661.063110,418.748688 1662.226929,418.682953 1663.806885,418.612061 
	C1665.029785,418.871918 1665.769287,418.535645 1666.603027,417.944153 
	C1666.683350,417.557678 1666.734985,417.750610 1666.640137,417.719482 
	C1668.443848,415.893951 1667.960693,413.500885 1667.964844,411.334167 
	C1668.022705,380.841492 1668.140991,350.347504 1667.866211,319.857178 
	C1667.820435,314.782990 1668.322266,309.515533 1666.743530,304.045776 
	C1684.627197,303.537537 1702.386108,303.496735 1720.565063,303.475403 
	C1722.249512,308.129059 1720.493164,312.662079 1720.513306,317.286499 
	C1720.690918,357.892639 1720.616211,398.499878 1720.616089,439.106812 
	C1720.616089,490.198334 1720.650269,541.289917 1720.554321,592.381226 
	C1720.546265,596.683838 1721.652954,600.982971 1720.312012,605.668457 
z"/>
<path fill="#030203" opacity="1.000000" stroke="none" 
	d="
M2009.031006,479.656342 
	C2011.915649,516.965210 2005.500244,551.120239 1979.000488,578.907104 
	C1966.826294,591.672607 1951.572876,599.500427 1934.514648,604.108582 
	C1917.268921,608.767395 1899.873047,610.097168 1882.160889,608.184448 
	C1858.934937,605.676331 1837.773926,597.928894 1820.170410,582.312378 
	C1807.767334,571.309631 1799.229126,557.368225 1793.875732,541.705139 
	C1783.684082,511.886505 1783.180908,481.433105 1791.567749,451.382568 
	C1801.716064,415.020020 1825.481201,391.288086 1862.388794,381.384064 
	C1884.192261,375.533203 1906.177246,375.134094 1928.095093,379.997223 
	C1949.277466,384.697113 1968.020386,394.158173 1982.560303,410.869781 
	C1994.712769,424.837311 2002.522705,440.817505 2006.240112,458.989960 
	C2007.613892,465.704742 2008.783081,472.360687 2009.031006,479.656342 
z"/>
<path fill="#020102" opacity="1.000000" stroke="none" 
	d="
M2850.882080,299.220825 
	C2871.276855,286.832916 2893.531494,283.973328 2916.324707,285.211914 
	C2930.475342,285.980865 2944.640381,288.027191 2957.578369,294.901642 
	C2961.495605,296.982941 2963.064453,298.518646 2961.175293,303.443878 
	C2957.027588,314.257263 2953.753906,325.418427 2950.436523,336.530975 
	C2949.253418,340.492706 2947.119629,340.829865 2944.187256,339.100525 
	C2931.247559,331.469147 2917.150635,329.757690 2902.761475,332.169220 
	C2891.755615,334.013763 2883.077393,340.897400 2881.493408,353.437988 
	C2880.586426,360.619446 2880.754395,368.035309 2883.121826,375.149292 
	C2884.084229,378.041351 2885.843750,379.406036 2888.925049,379.405701 
	C2897.741699,379.404694 2906.558594,379.604187 2915.375000,379.576019 
	C2926.500732,379.540466 2937.626221,379.357849 2949.034180,379.591125 
	C2950.202881,381.212219 2950.527588,382.651642 2950.540771,384.165741 
	C2950.641357,395.737122 2950.689453,407.308655 2950.512451,418.879730 
	C2950.494873,420.044525 2950.264160,421.180237 2949.399902,422.624268 
	C2929.614258,423.021881 2910.113525,423.107880 2890.615234,422.934723 
	C2885.987305,422.893585 2884.073486,424.301514 2884.085449,429.199982 
	C2884.224854,487.032166 2884.194580,544.864746 2884.287842,602.697144 
	C2884.291748,605.129211 2884.669189,606.845276 2881.161865,606.627991 
	C2865.518555,605.658630 2849.852539,606.171265 2834.195312,606.320740 
	C2827.906982,606.380798 2827.909668,606.535461 2827.909668,600.127197 
	C2827.909668,542.960571 2827.864990,485.793793 2827.999268,428.627441 
	C2828.009277,424.380066 2827.146240,422.679504 2822.539551,422.901306 
	C2814.724365,423.277588 2806.876221,422.917145 2799.045410,423.052856 
	C2796.552246,423.096069 2795.743164,422.569550 2795.786865,419.818390 
	C2795.983154,407.488251 2795.950684,395.152344 2795.812012,382.820587 
	C2795.778320,379.848053 2796.188965,379.101501 2799.606445,379.298218 
	C2808.401123,379.804504 2817.255615,380.080475 2826.518066,378.892365 
	C2827.821045,378.139526 2827.454590,377.271942 2827.247314,376.184448 
	C2827.091553,375.906616 2827.000244,375.962311 2827.052734,375.952026 
	C2824.740723,372.315582 2824.902100,368.043945 2824.331543,364.036743 
	C2821.693359,345.500793 2825.161133,328.199738 2835.534912,312.455780 
	C2836.816406,310.510864 2838.450684,308.853638 2840.799561,307.363068 
	C2841.129395,307.100037 2841.037109,307.043640 2841.058105,307.093445 
	C2841.239746,306.816925 2841.466553,306.544678 2841.983398,306.183594 
	C2842.528564,306.047668 2842.773193,305.918304 2843.000000,305.451202 
	C2844.860840,302.391876 2847.558105,300.680725 2850.882080,299.220825 
z"/>
<path fill="#020203" opacity="1.000000" stroke="none" 
	d="
M2163.197754,523.112488 
	C2156.971191,518.413086 2149.812256,516.806152 2142.741211,515.078125 
	C2128.273193,511.542542 2113.540527,509.045074 2099.410400,504.189514 
	C2083.235596,498.631439 2068.464844,490.957581 2059.252441,475.659790 
	C2052.625488,464.655426 2050.675537,452.609467 2051.388916,439.847595 
	C2052.027344,428.422882 2054.995117,417.983521 2061.531006,408.534332 
	C2071.058350,394.760193 2084.584717,386.627167 2100.185059,382.033234 
	C2123.629150,375.129333 2147.499512,375.129669 2171.310059,380.046753 
	C2187.859375,383.464355 2202.621826,390.728424 2214.965088,402.527161 
	C2220.233643,407.563263 2220.251953,408.910400 2215.156006,414.226105 
	C2207.561035,422.148590 2200.017578,430.120209 2192.492188,438.108887 
	C2189.617676,441.160522 2186.864746,441.105194 2183.900635,438.230133 
	C2164.770020,419.674286 2142.010986,416.795441 2117.318359,423.242859 
	C2109.369873,425.318298 2104.292480,431.872925 2103.681641,439.289825 
	C2102.919922,448.540741 2106.704346,455.556641 2115.028809,459.709839 
	C2120.835449,462.606812 2127.124512,464.182831 2133.425293,465.610474 
	C2145.842529,468.424011 2158.335449,470.929871 2170.682129,474.020996 
	C2183.104736,477.131073 2194.979004,481.695923 2205.327881,489.556305 
	C2218.907959,499.870941 2225.515381,513.859314 2226.863281,530.566101 
	C2228.244873,547.688354 2224.922852,563.565979 2214.757324,577.827820 
	C2204.864990,591.705811 2190.777832,599.120728 2175.117920,603.907837 
	C2153.188232,610.611572 2130.755859,610.489563 2108.428711,606.565247 
	C2088.374756,603.040466 2069.733154,595.764526 2054.055908,582.186401 
	C2053.427979,581.642456 2052.807617,581.085815 2052.225586,580.493835 
	C2048.587402,576.793640 2044.634644,572.936096 2043.172241,568.090820 
	C2041.412964,562.262451 2048.029297,560.316101 2050.878174,556.828247 
	C2056.965332,549.375916 2064.116211,542.793518 2070.814697,535.838867 
	C2073.803223,532.736328 2076.678711,532.475159 2079.600098,535.952637 
	C2088.436279,546.470459 2099.178223,554.522705 2112.199219,558.852539 
	C2123.110352,562.480774 2134.500732,563.838501 2146.065430,562.434326 
	C2152.303711,561.676880 2158.626221,561.164856 2163.645996,556.038086 
	C2174.094971,546.253235 2174.661865,536.022400 2165.579590,524.956909 
	C2165.479736,524.621033 2165.392090,524.604919 2165.382812,524.561401 
	C2164.424561,524.615540 2163.997559,523.826599 2163.197754,523.112488 
z"/>
<path fill="#010101" opacity="1.000000" stroke="none" 
	d="
M2484.000488,303.586121 
	C2494.825928,303.467865 2505.155518,303.481384 2515.473877,303.147095 
	C2518.409180,303.052032 2518.241943,304.440674 2518.218262,306.430084 
	C2518.130859,313.760986 2518.114014,321.092987 2518.113037,328.424591 
	C2518.104492,402.747467 2518.101318,477.070312 2518.104980,551.393188 
	C2518.105469,558.677368 2518.131104,558.608093 2525.434082,558.603638 
	C2564.261719,558.580139 2603.089355,558.557739 2641.916992,558.617065 
	C2653.910400,558.635376 2653.916260,558.753479 2653.924316,570.456604 
	C2653.931396,580.788452 2653.814453,591.122070 2653.981934,601.451172 
	C2654.039307,604.979309 2653.189941,606.413513 2649.268311,606.402527 
	C2588.278809,606.231628 2527.288818,606.208191 2466.299072,606.179199 
	C2463.988770,606.178101 2461.678467,606.464417 2458.898438,606.647705 
	C2458.898438,604.595154 2458.898438,602.452026 2458.898193,600.308960 
	C2458.887207,502.822784 2458.895508,405.336578 2458.789795,307.850525 
	C2458.785645,304.101898 2459.277100,302.970764 2463.523193,303.413727 
	C2470.116699,304.101624 2476.834961,303.589386 2484.000488,303.586121 
z"/>
<path fill="#020102" opacity="1.000000" stroke="none" 
	d="
M3120.234863,595.381958 
	C3118.354004,598.244202 3115.674561,599.269775 3113.098389,600.321106 
	C3084.859131,611.847473 3056.518066,613.106018 3028.528564,599.917603 
	C3013.557129,592.863098 3004.713379,580.141235 2999.597900,564.670471 
	C2995.743896,553.015503 2994.777100,541.044617 2994.860840,528.809998 
	C2995.089844,495.319916 2994.867676,461.826874 2995.000977,428.335724 
	C2995.017090,424.271118 2993.993164,422.752441 2989.702148,422.909424 
	C2981.049072,423.225983 2972.374023,422.887848 2963.713135,423.066650 
	C2960.803467,423.126678 2959.555664,422.518005 2959.589355,419.303436 
	C2959.715332,407.309082 2959.643066,395.311584 2959.526367,383.316406 
	C2959.492432,379.812469 2960.604004,379.123657 2964.261963,379.335663 
	C2972.890381,379.835846 2981.571045,379.417297 2990.230469,379.422028 
	C2993.774902,379.423981 2995.198242,378.265533 2995.075928,374.234009 
	C2994.707520,362.081085 2994.928711,349.910583 2994.891846,337.747009 
	C2994.885986,335.883667 2994.648193,334.557465 2997.468994,334.152374 
	C3013.403320,331.864044 3029.338867,329.505249 3045.160645,326.559601 
	C3050.645508,325.538422 3051.061035,328.039673 3051.057617,331.985199 
	C3051.045654,345.981598 3051.269287,359.984253 3050.890869,373.970673 
	C3050.773682,378.295868 3052.240234,379.461212 3056.073486,379.456085 
	C3068.067627,379.440033 3080.061768,379.582428 3092.055908,379.576599 
	C3098.550537,379.573425 3105.061279,379.631836 3111.533691,379.198303 
	C3115.042480,378.963257 3115.872314,380.316803 3115.855713,383.394592 
	C3115.791016,395.390991 3115.700928,407.390564 3115.929443,419.383087 
	C3115.994385,422.793762 3114.576904,423.064667 3111.820068,423.050262 
	C3093.658447,422.955566 3075.495850,422.999084 3057.333740,423.004883 
	C3050.893555,423.006958 3050.961182,423.016144 3050.971924,429.282776 
	C3051.027344,461.607910 3051.015869,493.933197 3051.100586,526.258240 
	C3051.117676,532.736267 3051.504150,539.132141 3053.928955,545.357178 
	C3057.175049,553.690796 3063.602051,558.317749 3071.740234,559.671082 
	C3082.401367,561.444031 3092.944336,560.007324 3102.532715,554.283386 
	C3108.742920,550.575928 3109.564209,550.885376 3111.975342,557.746765 
	C3113.736572,562.758545 3115.390869,567.807861 3117.114258,573.205750 
	C3118.023438,577.642883 3119.302490,581.534790 3121.117676,585.340027 
	C3122.602051,588.450989 3123.379395,592.022705 3120.234863,595.381958 
z"/>
<path fill="#020203" opacity="1.000000" stroke="none" 
	d="
M2249.087891,379.626068 
	C2258.665283,379.436188 2267.814941,379.611206 2276.961426,379.515137 
	C2283.855469,379.442749 2283.855713,379.288239 2283.857422,372.602051 
	C2283.860596,361.106049 2284.019531,349.606354 2283.754883,338.116486 
	C2283.685059,335.092255 2284.882324,334.511780 2287.314209,334.134155 
	C2303.041504,331.692200 2318.775391,329.280762 2334.460693,326.589264 
	C2338.623779,325.874847 2340.117920,326.691559 2340.045654,331.181763 
	C2339.815186,345.506500 2340.133301,359.840729 2339.848633,374.163483 
	C2339.769531,378.138824 2341.050049,379.354248 2344.753418,379.348236 
	C2363.238037,379.318207 2381.725586,379.598663 2400.204346,379.290100 
	C2404.031006,379.226196 2404.909424,380.282745 2404.893311,383.586304 
	C2404.835938,395.248688 2404.736572,406.913605 2404.935547,418.572784 
	C2404.997070,422.180847 2403.717529,423.089661 2400.308105,423.065002 
	C2381.981934,422.932373 2363.653564,423.098145 2345.328125,422.928436 
	C2341.424316,422.892273 2339.824951,423.603973 2339.852783,428.058472 
	C2340.055908,460.546143 2339.940186,493.035706 2339.986328,525.524597 
	C2339.995361,531.849548 2340.415039,538.134644 2342.443115,544.233765 
	C2345.301514,552.829102 2351.567871,557.910034 2360.000732,559.477234 
	C2371.015137,561.524048 2381.841064,560.173157 2391.678223,554.129028 
	C2397.390625,550.619202 2398.699707,551.092651 2400.911377,557.454651 
	C2404.565430,567.966003 2408.135010,578.508179 2411.941162,588.964294 
	C2413.190674,592.397095 2412.238037,594.461609 2409.317139,596.342041 
	C2398.897217,603.050232 2387.319824,606.293091 2375.211182,607.911438 
	C2356.076172,610.468811 2337.337402,609.361511 2319.574951,600.999084 
	C2299.799316,591.689026 2290.257812,575.026489 2285.912598,554.390503 
	C2283.552246,543.180176 2283.903320,531.935242 2283.893311,520.657104 
	C2283.866211,490.500732 2283.888916,460.344330 2283.886475,430.187927 
	C2283.885986,423.007294 2283.876221,423.012634 2276.969727,423.003113 
	C2267.973145,422.990723 2258.976562,422.968811 2249.514160,422.947388 
	C2246.850098,417.583252 2247.424561,411.942688 2247.402588,406.369049 
	C2247.375000,399.436646 2247.358643,392.503784 2247.419678,385.571472 
	C2247.437012,383.599976 2247.370361,381.582214 2249.087891,379.626068 
z"/>
<path fill="#050304" opacity="1.000000" stroke="none" 
	d="
M2697.531494,493.999695 
	C2697.535645,457.352966 2697.580566,421.206207 2697.492432,385.059723 
	C2697.481445,380.588043 2698.320068,379.042542 2703.604980,379.242706 
	C2719.067139,379.828400 2734.573975,379.587158 2750.050293,379.174927 
	C2753.655762,379.078949 2754.362305,380.231506 2754.385254,383.140106 
	C2754.417725,387.303802 2754.525146,391.467285 2754.525635,395.630859 
	C2754.534668,463.260468 2754.531982,530.890076 2754.530273,598.519653 
	C2754.530273,599.685547 2754.489014,600.851929 2754.510254,602.017334 
	C2754.574463,605.541199 2753.315674,606.541931 2749.429199,606.444824 
	C2733.949951,606.058167 2718.443604,605.941467 2702.974121,606.484924 
	C2698.319336,606.648438 2697.612061,605.412964 2697.616699,601.439941 
	C2697.660156,565.793274 2697.577148,530.146484 2697.531494,493.999695 
z"/>
<path fill="#040304" opacity="1.000000" stroke="none" 
	d="
M2752.561523,341.547546 
	C2735.087891,358.407654 2705.612061,354.873871 2695.319092,334.978699 
	C2688.838379,322.452026 2690.543701,306.800507 2699.540039,296.234955 
	C2707.683838,286.670593 2723.678467,282.983765 2736.525879,286.414856 
	C2760.141602,292.721863 2768.910645,321.096252 2752.561523,341.547546 
z"/>
<path fill="#01020C" opacity="1.000000" stroke="none" 
	d="
M1720.317139,606.218994 
	C1718.141357,594.481018 1719.056030,582.823608 1719.044800,571.209412 
	C1718.962036,485.600830 1719.011475,399.992126 1718.959961,314.383484 
	C1718.957764,310.821777 1719.362915,307.439850 1720.910522,303.847870 
	C1723.792603,302.535828 1725.077759,303.686798 1725.142578,306.506226 
	C1725.161743,307.337799 1725.143555,308.170197 1725.143555,309.002228 
	C1725.145264,406.182343 1725.147827,503.362427 1725.145752,600.542542 
	C1725.145630,603.631042 1726.027344,607.437744 1720.317139,606.218994 
z"/>
<path fill="#360400" opacity="1.000000" stroke="none" 
	d="
M1666.826660,471.310547 
	C1669.231323,471.313019 1668.993530,473.100555 1668.993652,474.760101 
	C1668.997803,516.305847 1669.003174,557.851562 1668.993530,599.397278 
	C1668.993286,600.680969 1669.281372,602.127258 1667.346680,603.022217 
	C1666.887085,598.177856 1666.766602,593.193848 1666.762329,588.209656 
	C1666.729492,549.400452 1666.719238,510.591278 1666.826660,471.310547 
z"/>
<path fill="#F4E8C8" opacity="1.000000" stroke="none" 
	d="
M2840.756348,307.067200 
	C2824.633789,326.000427 2822.002686,347.977112 2826.796631,371.610535 
	C2827.027100,372.748108 2827.085938,373.920532 2827.165039,375.509216 
	C2825.865234,375.889099 2824.762939,375.531372 2824.314941,374.251984 
	C2819.836670,361.458771 2817.819824,348.824036 2823.916504,335.699371 
	C2825.835449,331.567871 2826.452881,326.174408 2828.483887,322.351624 
	C2831.418945,316.827209 2832.821045,309.246368 2840.756348,307.067200 
z"/>
<path fill="#360501" opacity="1.000000" stroke="none" 
	d="
M1666.672119,303.970978 
	C1668.614868,305.947662 1669.066406,308.580627 1669.058960,311.521942 
	C1668.974976,344.312225 1668.987915,377.102783 1669.002930,409.893250 
	C1669.004150,412.580536 1668.925537,415.204681 1666.925049,417.598755 
	C1666.575195,384.072784 1666.611084,350.457275 1666.627686,316.841736 
	C1666.629639,312.682404 1666.529053,308.523010 1666.672119,303.970978 
z"/>
<path fill="#AEDBE6" opacity="1.000000" stroke="none" 
	d="
M2949.505127,423.053589 
	C2949.224121,408.980774 2949.334473,394.930847 2949.380615,380.412292 
	C2952.174316,379.973022 2952.902588,381.651367 2952.889893,384.210876 
	C2952.832520,395.701294 2952.837891,407.192291 2952.889648,418.682739 
	C2952.899902,420.935364 2952.413818,422.644562 2949.505127,423.053589 
z"/>
<path fill="#DCD0A9" opacity="1.000000" stroke="none" 
	d="
M2249.108887,379.308167 
	C2248.570557,380.685272 2248.656738,382.204559 2248.654053,383.696442 
	C2248.630859,396.500763 2248.616211,409.305115 2248.823730,422.526581 
	C2245.863770,420.019867 2244.919189,416.447815 2245.053467,412.128448 
	C2245.337891,402.973724 2245.108398,393.803925 2245.179443,384.641022 
	C2245.198486,382.189819 2244.962402,379.361176 2249.108887,379.308167 
z"/>
<path fill="#F0DDBB" opacity="1.000000" stroke="none" 
	d="
M2165.365723,524.996094 
	C2175.572510,533.212708 2175.039062,549.181274 2164.202637,556.085938 
	C2165.751221,552.293396 2169.656006,549.291748 2168.895020,544.927124 
	C2167.757324,538.402039 2169.712646,531.263733 2165.365723,524.996094 
z"/>
<path fill="#15254B" opacity="1.000000" stroke="none" 
	d="
M3120.188232,595.457397 
	C3121.513916,591.629395 3121.783447,587.854126 3119.198730,583.955505 
	C3117.372559,581.201111 3116.732178,577.874878 3117.095459,574.025513 
	C3119.379395,579.361450 3121.641113,585.144958 3123.861328,590.944580 
	C3125.103760,594.190308 3122.814209,594.770691 3120.188232,595.457397 
z"/>
<path fill="#F4E8C8" opacity="1.000000" stroke="none" 
	d="
M2850.784180,299.026978 
	C2848.693604,301.039703 2846.199463,303.019684 2843.378418,305.121155 
	C2843.003662,300.238434 2846.486816,299.375427 2850.784180,299.026978 
z"/>
<path fill="#F0DDBB" opacity="1.000000" stroke="none" 
	d="
M2163.059082,523.233398 
	C2163.696777,523.249146 2164.385742,523.621338 2165.224121,524.255676 
	C2164.326172,524.923523 2163.518555,524.743713 2163.059082,523.233398 
z"/>
<path fill="#F4E8C8" opacity="1.000000" stroke="none" 
	d="
M2827.007324,376.259155 
	C2827.873535,376.745728 2828.134766,377.678589 2827.290039,378.769073 
	C2826.958252,378.060028 2826.940674,377.335876 2827.007324,376.259155 
z"/>
<path fill="#360501" opacity="1.000000" stroke="none" 
	d="
M1666.342896,417.592346 
	C1666.515625,418.505280 1665.905640,418.856415 1664.610718,418.691589 
	C1664.816040,418.259735 1665.409180,417.943359 1666.342896,417.592346 
z"/>
<path fill="#F4E8C8" opacity="1.000000" stroke="none" 
	d="
M2841.935547,306.117188 
	C2842.024902,306.369415 2841.833984,306.691010 2841.361084,307.077881 
	C2841.271240,306.824310 2841.463135,306.505432 2841.935547,306.117188 
z"/>
<path fill="#F7F7F7" opacity="1.000000" stroke="none" 
	d="
M715.976135,555.000000 
	C715.975037,488.349396 716.570740,422.190338 715.632202,356.053040 
	C715.325134,334.415741 724.877991,320.450043 741.750732,309.673828 
	C763.287476,295.918762 787.353149,289.427368 812.241943,284.960480 
	C845.151489,279.053986 878.196594,278.481293 911.229004,282.342560 
	C938.351685,285.513062 964.934753,291.494232 989.458252,304.311310 
	C1004.084778,311.955811 1016.091125,322.333130 1023.544617,337.401093 
	C1024.258301,338.843933 1024.172607,340.309204 1024.172729,341.784943 
	C1024.186035,435.258667 1024.197510,528.732361 1024.168701,622.206116 
	C1024.164185,636.886414 1016.003967,647.191650 1005.222229,655.705933 
	C990.239929,667.537415 972.793091,674.455566 954.605591,679.485840 
	C917.278381,689.809937 879.158691,692.152771 840.747375,689.077515 
	C814.170166,686.949646 787.962708,682.182007 763.172913,671.849915 
	C749.462585,666.135620 736.437256,659.037903 726.387085,647.642029 
	C719.565613,639.907166 715.673401,631.197937 715.861877,620.480835 
	C716.242676,598.826599 715.975769,577.160950 715.976135,555.000000 
z"/>
<path fill="#FDFDFC" opacity="1.000000" stroke="none" 
	d="
M1844.644043,478.285461 
	C1846.212280,465.701233 1849.017456,454.192291 1856.162598,443.789215 
	C1864.036011,432.325562 1874.969238,426.804962 1888.197144,425.341400 
	C1901.001343,423.924713 1913.608765,424.445892 1925.401611,430.905670 
	C1937.270996,437.407318 1944.482910,447.638580 1947.647217,460.200562 
	C1953.598755,483.827545 1954.060669,507.699982 1945.606445,530.897461 
	C1939.426147,547.854919 1926.947754,557.685852 1908.745361,560.330627 
	C1899.352783,561.695435 1889.884155,561.678467 1881.005005,559.444458 
	C1867.820190,556.127136 1857.678223,547.873291 1851.854126,535.093079 
	C1851.647583,534.640015 1851.390381,534.209961 1850.991333,533.467163 
	C1845.771606,525.739868 1845.814331,517.193115 1845.182739,508.426544 
	C1844.915039,508.117310 1844.980957,508.072052 1844.942993,508.059570 
	C1844.517334,507.507568 1843.996216,506.949188 1843.947632,506.324799 
	C1843.228760,497.107269 1842.828369,487.889862 1844.644043,478.285461 
z"/>
<path fill="#15254B" opacity="1.000000" stroke="none" 
	d="
M1844.535645,477.980164 
	C1844.938721,487.611786 1844.968628,497.358795 1844.951660,507.576447 
	C1839.987427,505.554504 1840.830566,500.796570 1841.276611,496.870789 
	C1841.836182,491.945190 1842.053467,487.055206 1842.069336,482.129517 
	C1842.074951,480.392975 1842.234375,478.803436 1844.535645,477.980164 
z"/>
<path fill="#15254B" opacity="1.000000" stroke="none" 
	d="
M1844.822754,508.571411 
	C1846.195679,516.373291 1847.307251,524.670471 1850.826416,532.773010 
	C1845.892822,530.277588 1845.566528,525.227966 1845.073364,520.402527 
	C1844.688721,516.637817 1844.825562,512.819824 1844.822754,508.571411 
z"/>
<path fill="#010101" opacity="1.000000" stroke="none" 
	d="
M983.603516,383.724854 
	C958.420898,395.418549 932.195740,401.441864 905.013977,404.203308 
	C878.003113,406.947357 851.076477,406.573303 824.254639,402.924866 
	C798.284363,399.392242 772.982788,393.202362 749.920410,380.045898 
	C742.947632,376.068115 736.591309,371.252747 731.488953,364.956787 
	C721.847046,353.059326 722.129211,339.794830 732.446411,328.445557 
	C743.391479,316.405670 757.545044,309.359100 772.551514,304.178101 
	C818.086609,288.457123 864.801575,285.213898 912.439087,291.324890 
	C936.356628,294.393066 959.534973,299.751465 981.450989,309.971527 
	C990.859985,314.359192 999.582703,319.799927 1006.765503,327.432098 
	C1018.905518,340.331543 1018.354614,356.180847 1005.559753,368.498932 
	C999.129822,374.689240 991.671448,379.292877 983.603516,383.724854 
z"/>
<path fill="#020202" opacity="1.000000" stroke="none" 
	d="
M962.747070,667.850952 
	C923.309326,680.600403 883.316345,683.586548 842.555542,680.427673 
	C818.522461,678.565125 795.093750,674.302856 772.454407,666.104309 
	C757.528809,660.699158 743.336487,653.862915 732.423767,641.761902 
	C726.835388,635.565002 724.124084,628.309448 724.172241,619.927551 
	C724.259155,604.807678 724.196838,589.687012 724.196838,573.650696 
	C729.236267,578.227478 733.386353,582.572937 738.289795,586.091125 
	C752.976990,596.628967 769.548096,603.133911 786.731750,607.707092 
	C817.318359,615.847351 848.639221,618.848938 880.249268,617.823303 
	C911.482605,616.809875 942.322083,612.833313 971.769775,601.726196 
	C987.841125,595.664307 1002.982361,587.780090 1014.713257,574.568970 
	C1016.389343,575.994385 1015.675842,577.747864 1015.683533,579.249817 
	C1015.752136,592.746338 1015.545227,606.246643 1015.796387,619.738892 
	C1015.982666,629.745300 1012.216248,637.806335 1005.098206,644.539795 
	C993.105469,655.884644 978.494934,662.497009 962.747070,667.850952 
z"/>
<path fill="#020202" opacity="1.000000" stroke="none" 
	d="
M983.469849,517.515503 
	C965.392273,526.320435 946.591187,531.531494 927.221497,534.995544 
	C899.193665,540.007935 871.029541,540.703857 842.671692,538.745544 
	C819.975769,537.178101 797.805542,532.969177 776.342834,525.743958 
	C759.306091,520.008667 742.868835,512.658936 730.959290,498.178345 
	C727.150208,493.546967 724.542419,488.159485 724.406799,482.308746 
	C724.033630,466.209381 724.277954,450.095642 724.277954,433.323364 
	C728.461609,437.106628 731.958801,440.795166 735.967102,443.802368 
	C753.012878,456.590912 772.577271,463.719330 793.072205,468.657349 
	C837.236328,479.298248 881.802429,479.922455 926.461609,472.995728 
	C950.345215,469.291382 973.559448,462.811829 994.629028,450.270874 
	C1002.059570,445.848053 1008.871704,440.681274 1014.727844,433.972229 
	C1016.224915,435.112244 1015.671570,436.699036 1015.677246,437.995941 
	C1015.737671,451.819611 1015.671326,465.643860 1015.744995,479.467407 
	C1015.813354,492.304810 1008.359253,500.709686 999.049500,507.983368 
	C994.333496,511.667999 989.214539,514.766296 983.469849,517.515503 
z"/>
<path fill="#020202" opacity="1.000000" stroke="none" 
	d="
M727.670227,507.306702 
	C739.805847,519.496338 754.371277,526.978027 769.996643,532.560730 
	C809.875061,546.808533 851.211670,550.076050 893.069153,547.628906 
	C920.200134,546.042786 947.018494,541.736572 972.537292,531.799316 
	C988.388000,525.626953 1003.383789,517.843994 1015.739014,503.730621 
	C1015.739014,507.946381 1015.739624,511.021881 1015.738953,514.097412 
	C1015.736694,524.430664 1015.271973,534.789551 1015.844604,545.090820 
	C1016.617493,558.994141 1010.341431,568.976379 999.856628,576.999512 
	C987.549561,586.417053 973.530029,592.389160 958.867310,596.966858 
	C915.816345,610.407410 871.765015,611.928345 827.389771,606.918640 
	C804.902893,604.380066 782.845825,599.103210 762.059937,589.813599 
	C750.510376,584.651917 739.440552,578.459290 731.306946,568.256470 
	C726.697388,562.474182 724.186890,555.958435 724.202209,548.499634 
	C724.232239,533.900696 724.211060,519.301575 724.211060,504.625183 
	C726.148743,504.694977 726.499268,506.222382 727.670227,507.306702 
z"/>
<path fill="#020202" opacity="1.000000" stroke="none" 
	d="
M1015.732910,376.309387 
	C1015.724854,385.936768 1015.240662,395.130219 1015.825439,404.255157 
	C1016.801453,419.484680 1009.339233,429.802551 997.710388,438.101410 
	C984.416504,447.588531 969.494141,453.450378 953.931274,457.921234 
	C911.654175,470.066467 868.644287,471.466461 825.317261,466.021576 
	C799.496033,462.776672 774.313965,456.665680 751.341980,443.828430 
	C740.221985,437.614319 729.960632,430.203766 725.637939,417.236328 
	C724.791504,414.697296 724.197571,412.134644 724.201538,409.435699 
	C724.220459,396.633026 724.209961,383.830292 724.209961,370.747040 
	C726.642883,371.116333 727.337280,373.259003 728.664856,374.533264 
	C740.162292,385.568787 753.919250,392.692688 768.721069,398.143646 
	C809.477478,413.152802 851.766846,416.469910 894.606812,413.701172 
	C926.241638,411.656616 957.304565,406.073334 986.174988,391.934021 
	C996.958252,386.652924 1006.828064,380.020966 1014.923523,370.846619 
	C1016.297485,372.567932 1015.452393,374.288177 1015.732910,376.309387 
z"/>
</svg>